#!OML:ASF F:\VICON\USERDATA\INSTALL\rory3\rory3.ASF
:FULLY-SPECIFIED
:DEGREES
103
root 1.45805 17.2484 34.5786 -159.487 -52.6234 -172.525
lowerback -17.3455 1.31501 -0.104525
upperback -10.2331 0.652422 0.539795
thorax -1.21813 -0.126002 0.739303
lowerneck 2.74991 -18.3863 -17.3826
upperneck 15.8865 -29.2749 15.5892
head 9.43782 -14.6113 4.51647
rclavicle -3.04265e-014 -1.86858e-014
rhumerus -60.529 13.865 -96.4751
rradius 32.1117
rwrist -46.8784
rhand -6.31989 -4.24726
rfingers 7.12502
rthumb 19.5248 -33.2869
lclavicle -3.04265e-014 -1.86858e-014
lhumerus -65.7472 -6.71591 94.4351
lradius 44.6946
lwrist 46.9449
lhand 1.9509 33.7785
lfingers 7.12502
lthumb 27.4576 61.7971
rfemur -15.9549 -6.26079 32.5454
rtibia 37.4831
rfoot 39.6667 -18.7737
rtoes 22.0329
lfemur -39.4204 2.14569 -28.6619
ltibia 31.0243
lfoot -42.1873 29.497
ltoes 22.089
104
root 1.45907 17.2536 34.5859 -159.625 -52.6689 -172.341
lowerback -17.3729 1.23767 0.0184243
upperback -10.1622 0.539218 0.638153
thorax -1.12498 -0.182404 0.755284
lowerneck 3.332 -18.5727 -17.3476
upperneck 15.2776 -29.5513 15.7945
head 9.2063 -14.7754 4.59901
rclavicle -4.71865e-014 -2.98177e-014
rhumerus -60.7875 14.4093 -96.8943
rradius 32.6394
rwrist -47.3948
rhand -5.65211 -4.4791
rfingers 7.12502
rthumb 20.1668 -33.4523
lclavicle -4.71865e-014 -2.98177e-014
lhumerus -65.812 -6.63662 94.7284
lradius 44.9621
lwrist 47.5094
lhand 2.45546 33.7458
lfingers 7.12502
lthumb 27.9401 61.6869
rfemur -15.9661 -5.87406 32.7092
rtibia 37.4754
rfoot 39.4417 -19.3103
rtoes 22.3585
lfemur -39.3972 1.88944 -28.4377
ltibia 30.977
lfoot -42.5953 29.3646
ltoes 22.7751
105
root 1.46068 17.2586 34.5943 -159.601 -52.6772 -172.39
lowerback -17.3119 1.17369 0.0144677
upperback -10.1539 0.458682 0.627003
thorax -1.14633 -0.221853 0.732704
lowerneck 4.15522 -18.7145 -17.0944
upperneck 14.6378 -29.8072 15.9871
head 8.88682 -14.947 4.69353
rclavicle 2.90723e-015 -1.19271e-015
rhumerus -60.9691 14.5653 -97.1029
rradius 33.0492
rwrist -47.7127
rhand -4.83519 -4.87215
rfingers 7.12502
rthumb 20.9518 -33.7606
lclavicle 2.90723e-015 -1.19271e-015
lhumerus -66.0238 -6.69322 94.9846
lradius 45.3808
lwrist 48.1853
lhand 2.89414 33.6004
lfingers 7.12502
lthumb 28.3594 61.4725
rfemur -16.0051 -5.80738 32.6718
rtibia 37.5443
rfoot 39.2383 -19.6792
rtoes 22.8544
lfemur -39.3583 1.69703 -28.3982
ltibia 30.921
lfoot -42.7212 29.4565
ltoes 22.7769
106
root 1.46359 17.2607 34.6047 -159.366 -52.5775 -172.678
lowerback -17.2411 1.09521 -0.171381
upperback -10.1551 0.383242 0.624757
thorax -1.18584 -0.251112 0.823043
lowerneck 4.70644 -18.6868 -17.2923
upperneck 14.2341 -29.9474 16.5705
head 8.81375 -15.0485 4.93031
rclavicle -6.03808e-015 1.98785e-015
rhumerus -61.2809 15.2815 -97.7152
rradius 33.5773
rwrist -48.5118
rhand -4.35939 -4.8073
rfingers 7.12502
rthumb 21.4088 -33.6445
lclavicle -6.03808e-015 1.98785e-015
lhumerus -66.233 -6.66475 95.3459
lradius 45.9206
lwrist 49.1139
lhand 2.9177 33.9548
lfingers 7.12502
lthumb 28.3819 61.8232
rfemur -16.1133 -5.86294 32.4306
rtibia 37.6636
rfoot 39.1285 -19.8743
rtoes 23.2398
lfemur -39.2921 1.402 -28.4933
ltibia 30.785
lfoot -43.1688 29.4501
ltoes 23.3616
107
root 1.46737 17.2598 34.6174 -159.336 -52.4777 -172.702
lowerback -17.1558 1.10085 -0.166451
upperback -10.1653 0.390536 0.638591
thorax -1.24094 -0.246993 0.835759
lowerneck 5.12437 -18.6649 -17.6193
upperneck 13.8589 -30.0813 17.1853
head 8.79943 -15.1402 5.17245
rclavicle -3.98315e-014 -7.95139e-016
rhumerus -61.5967 15.6956 -97.9631
rradius 34.3255
rwrist -49.0725
rhand -3.89258 -4.97267
rfingers 7.12502
rthumb 21.8571 -33.7582
lclavicle -3.98315e-014 -7.95139e-016
lhumerus -66.386 -6.72687 95.6588
lradius 46.3728
lwrist 50.0996
lhand 3.08946 34.3642
lfingers 7.12502
lthumb 28.546 62.2051
rfemur -16.249 -5.84718 32.3559
rtibia 37.8034
rfoot 39.244 -19.6498
rtoes 23.1832
lfemur -39.2667 1.29216 -28.5048
ltibia 30.6824
lfoot -43.4591 29.321
ltoes 24.035
108
root 1.46864 17.2615 34.6296 -159.091 -52.36 -172.976
lowerback -17.0978 1.04272 -0.27362
upperback -10.1892 0.325884 0.642335
thorax -1.29713 -0.275917 0.890136
lowerneck 5.53938 -18.6716 -17.8145
upperneck 13.5524 -30.2016 17.5409
head 8.74174 -15.2288 5.32707
rclavicle -1.0958e-014 -1.55052e-014
rhumerus -61.7063 15.7678 -97.7504
rradius 34.8404
rwrist -48.9958
rhand -2.94785 -5.44364
rfingers 7.12502
rthumb 22.764 -34.1206
lclavicle -1.0958e-014 -1.55052e-014
lhumerus -66.4957 -6.57716 95.8013
lradius 46.7119
lwrist 51.0228
lhand 3.42461 34.5705
lfingers 7.12502
lthumb 28.8662 62.3572
rfemur -16.4001 -5.78901 32.1258
rtibia 37.9754
rfoot 39.2161 -19.6268
rtoes 23.4416
lfemur -39.2271 1.24924 -28.7145
ltibia 30.5594
lfoot -42.6449 29.9827
ltoes 22.6204
109
root 1.46682 17.2659 34.638 -158.967 -52.3738 -173.124
lowerback -17.1037 0.934405 -0.300337
upperback -10.1618 0.188225 0.7097
thorax -1.26279 -0.341264 0.954485
lowerneck 5.65178 -18.7437 -17.811
upperneck 13.6447 -30.3664 17.503
head 8.77827 -15.316 5.2921
rclavicle -6.27166e-014 0
rhumerus -61.7677 16.1558 -97.7905
rradius 35.2037
rwrist -48.9483
rhand -1.8635 -6.04456
rfingers 7.12502
rthumb 23.8043 -34.5898
lclavicle -6.27166e-014 0
lhumerus -66.4939 -6.26382 95.8434
lradius 46.9748
lwrist 51.6326
lhand 3.88593 34.6995
lfingers 7.12502
lthumb 29.3068 62.4101
rfemur -16.4854 -5.82552 32.0185
rtibia 38.1258
rfoot 39.2481 -19.2979
rtoes 22.8033
lfemur -39.1484 1.1391 -28.7862
ltibia 30.4442
lfoot -43.4188 29.2367
ltoes 24.4724
110
root 1.4713 17.2661 34.6467 -158.84 -52.2718 -173.301
lowerback -17.1181 0.848293 -0.442559
upperback -10.0127 0.114157 0.76798
thorax -1.09506 -0.362684 1.08307
lowerneck 5.18378 -18.9309 -17.6387
upperneck 13.9826 -30.5837 17.2497
head 8.94005 -15.3769 5.0904
rclavicle -7.97251e-014 3.97569e-016
rhumerus -61.6621 17.1515 -98.3079
rradius 35.6055
rwrist -49.5604
rhand -1.25338 -6.88323
rfingers 7.12502
rthumb 24.3893 -35.351
lclavicle -7.97251e-014 3.97569e-016
lhumerus -66.2422 -6.02646 95.7735
lradius 47.1802
lwrist 52.059
lhand 4.34319 34.8089
lfingers 7.12502
lthumb 29.7433 62.4423
rfemur -16.5759 -5.84572 31.8487
rtibia 38.2573
rfoot 39.1977 -19.351
rtoes 22.9381
lfemur -39.1106 1.06105 -28.9203
ltibia 30.3135
lfoot -43.1918 29.7565
ltoes 23.6828
111
root 1.47782 17.265 34.6541 -158.605 -52.174 -173.504
lowerback -17.261 0.826729 -0.613802
upperback -9.81365 0.134627 0.767693
thorax -0.809585 -0.336299 1.18095
lowerneck 4.70811 -19.1942 -17.332
upperneck 14.0338 -30.8583 17.1436
head 9.02009 -15.4551 4.91363
rclavicle 3.60546e-014 5.60573e-014
rhumerus -61.5366 18.17 -98.8909
rradius 36.1477
rwrist -50.2027
rhand 0.119776 -7.83342
rfingers 7.12502
rthumb 25.7051 -36.1176
lclavicle 3.60546e-014 5.60573e-014
lhumerus -65.8611 -6.11264 95.7924
lradius 47.3105
lwrist 52.5319
lhand 4.50132 34.7263
lfingers 7.12502
lthumb 29.8942 62.3327
rfemur -16.7348 -5.9371 31.6935
rtibia 38.3482
rfoot 39.235 -19.1662
rtoes 22.8445
lfemur -39.1547 1.06132 -29.0869
ltibia 30.14
lfoot -43.063 29.9301
ltoes 23.4924
112
root 1.48136 17.2702 34.6635 -158.572 -52.1086 -173.514
lowerback -17.3144 0.877842 -0.652568
upperback -9.70092 0.222609 0.779112
thorax -0.663648 -0.284691 1.22824
lowerneck 4.58691 -19.3943 -17.0675
upperneck 13.8977 -31.0735 17.1051
head 8.98364 -15.5364 4.82199
rclavicle -1.29893e-014 3.57812e-014
rhumerus -61.6412 18.7685 -99.213
rradius 36.7152
rwrist -50.2866
rhand 3.76116 -9.56499
rfingers 7.12502
rthumb 29.1876 -37.2963
lclavicle -1.29893e-014 3.57812e-014
lhumerus -65.5166 -6.1598 95.7712
lradius 47.2054
lwrist 52.7734
lhand 4.64472 34.8037
lfingers 7.12502
lthumb 30.031 62.3854
rfemur -16.7993 -5.78652 31.6512
rtibia 38.3827
rfoot 39.1526 -19.529
rtoes 23.8053
lfemur -39.1356 0.88605 -29.0209
ltibia 30.0333
lfoot -43.5738 29.595
ltoes 24.5036
113
root 1.48194 17.277 34.6712 -158.479 -52.0947 -173.64
lowerback -17.3447 0.81772 -0.778357
upperback -9.60523 0.172122 0.88869
thorax -0.546147 -0.297935 1.40571
lowerneck 4.46108 -19.4767 -17.0874
upperneck 13.8959 -31.1738 17.1099
head 9.02616 -15.5701 4.78793
rclavicle 6.80341e-014 2.06736e-014
rhumerus -61.4164 19.1946 -98.8519
rradius 37.1588
rwrist -50.2844
rhand 1.20356 -6.18446
rfingers 7.12502
rthumb 26.7427 -34.3144
lclavicle 6.80341e-014 2.06736e-014
lhumerus -65.0767 -5.71711 95.4694
lradius 46.8498
lwrist 52.6494
lhand 5.00554 34.7179
lfingers 7.12502
lthumb 30.3753 62.2366
rfemur -16.7576 -5.49453 31.5471
rtibia 38.2808
rfoot 39.0467 -20.1421
rtoes 24.4262
lfemur -39.1198 0.80561 -29.0857
ltibia 30.0574
lfoot -43.8678 29.2091
ltoes 25.236
114
root 1.4842 17.2715 34.6804 -158.957 -52.2495 -173.109
lowerback -17.3141 0.757904 -0.435627
upperback -9.50521 0.0511596 1.13749
thorax -0.448155 -0.361013 1.45313
lowerneck 4.36964 -19.507 -16.9915
upperneck 13.766 -31.1483 17.07
head 8.969 -15.5479 4.76653
rclavicle -5.56504e-014 -6.75868e-015
rhumerus -61.1886 19.8192 -98.6512
rradius 37.4715
rwrist -50.2134
rhand 3.46565 -8.4905
rfingers 7.12502
rthumb 28.9054 -36.2705
lclavicle -5.56504e-014 -6.75868e-015
lhumerus -64.679 -5.22898 95.0582
lradius 46.5166
lwrist 52.3385
lhand 5.59013 34.7703
lfingers 7.12502
lthumb 30.9327 62.1845
rfemur -16.5514 -5.77251 31.8883
rtibia 37.9904
rfoot 39.3397 -19.6891
rtoes 23.6575
lfemur -39.1701 0.668228 -28.6693
ltibia 30.2114
lfoot -44.0793 29.16
ltoes 25.2838
115
root 1.48604 17.2688 34.6909 -159.885 -52.5241 -172.111
lowerback -17.13 0.735808 0.310777
upperback -9.44727 -0.0817069 1.42518
thorax -0.472456 -0.445121 1.31179
lowerneck 4.50251 -19.4463 -16.964
upperneck 13.3148 -30.9906 17.2411
head 8.7905 -15.4824 4.87657
rclavicle 4.43942e-014 -3.04141e-014
rhumerus -61.2871 20.6143 -98.8891
rradius 37.9323
rwrist -50.1706
rhand 4.94772 -9.97958
rfingers 7.12502
rthumb 30.3201 -37.5084
lclavicle 4.43942e-014 -3.04141e-014
lhumerus -64.4633 -4.94169 94.7929
lradius 46.2614
lwrist 52.0988
lhand 6.31611 34.7416
lfingers 7.12502
lthumb 31.6245 62.0221
rfemur -16.2123 -5.82115 32.5759
rtibia 37.6997
rfoot 39.4794 -19.4685
rtoes 22.9418
lfemur -39.2033 0.43698 -27.874
ltibia 30.4759
lfoot -44.3066 29.2821
ltoes 25.0171
116
root 1.48766 17.2801 34.6997 -160.612 -52.7147 -171.267
lowerback -16.9893 0.752192 0.976765
upperback -9.44233 -0.156753 1.60044
thorax -0.535852 -0.503904 1.1081
lowerneck 4.59309 -19.3427 -16.898
upperneck 13.044 -30.8433 17.4601
head 8.68565 -15.4177 4.98442
rclavicle -6.3111e-014 -4.81059e-014
rhumerus -61.4686 21.02 -99.24
rradius 38.3159
rwrist -49.8802
rhand 4.60561 -9.33893
rfingers 7.12502
rthumb 29.9937 -36.9273
lclavicle -6.3111e-014 -4.81059e-014
lhumerus -64.3842 -4.91418 94.5566
lradius 46.0948
lwrist 52.1787
lhand 7.1145 34.6253
lfingers 7.12502
lthumb 32.3847 61.7534
rfemur -15.9712 -5.16698 33.2049
rtibia 37.4031
rfoot 39.6038 -19.8494
rtoes 22.8316
lfemur -39.3167 0.336603 -27.2444
ltibia 30.7331
lfoot -44.4642 29.2254
ltoes 25.2219
